<svg width="40" height="40" viewBox="0 0 40 40" fill="none" xmlns="http://www.w3.org/2000/svg">
<path d="M24.375 11.875C24.375 11.3777 24.5725 10.9008 24.9242 10.5492C25.2758 10.1975 25.7527 10 26.25 10H36.25C36.7473 10 37.2242 10.1975 37.5758 10.5492C37.9275 10.9008 38.125 11.3777 38.125 11.875C38.125 12.3723 37.9275 12.8492 37.5758 13.2008C37.2242 13.5525 36.7473 13.75 36.25 13.75H26.25C25.7527 13.75 25.2758 13.5525 24.9242 13.2008C24.5725 12.8492 24.375 12.3723 24.375 11.875ZM21.25 24.6875C21.25 25.6314 21.0641 26.566 20.7029 27.438C20.3417 28.3101 19.8123 29.1024 19.1448 29.7698C18.4774 30.4373 17.6851 30.9667 16.813 31.3279C15.941 31.6891 15.0064 31.875 14.0625 31.875H4.375C3.87772 31.875 3.40081 31.6775 3.04917 31.3258C2.69754 30.9742 2.5 30.4973 2.5 30V10C2.5 9.50272 2.69754 9.02581 3.04917 8.67417C3.40081 8.32254 3.87772 8.125 4.375 8.125H12.1875C13.3845 8.12605 14.5584 8.45446 15.5821 9.07468C16.6059 9.6949 17.4405 10.5833 17.9957 11.6438C18.5509 12.7042 18.8054 13.8963 18.7318 15.091C18.6582 16.2858 18.2593 17.4376 17.5781 18.4219C18.6914 19.0462 19.6183 19.9556 20.2636 21.0568C20.9089 22.158 21.2494 23.4112 21.25 24.6875ZM6.25 17.5H12.1875C12.9334 17.5 13.6488 17.2037 14.1762 16.6762C14.7037 16.1488 15 15.4334 15 14.6875C15 13.9416 14.7037 13.2262 14.1762 12.6988C13.6488 12.1713 12.9334 11.875 12.1875 11.875H6.25V17.5ZM17.5 24.6875C17.4959 23.7771 17.1324 22.9051 16.4886 22.2614C15.8449 21.6176 14.9729 21.2541 14.0625 21.25H6.25V28.125H14.0625C14.9729 28.1209 15.8449 27.7574 16.4886 27.1136C17.1324 26.4699 17.4959 25.5979 17.5 24.6875ZM39.375 23.75C39.375 24.2473 39.1775 24.7242 38.8258 25.0758C38.4742 25.4275 37.9973 25.625 37.5 25.625H27.2969C27.6517 26.3731 28.2115 27.0051 28.9113 27.4476C29.6111 27.8902 30.422 28.1251 31.25 28.125C31.9109 28.1305 32.5639 27.9806 33.1562 27.6875C33.6038 27.4699 34.1194 27.4391 34.5898 27.6017C35.0601 27.7643 35.4465 28.1071 35.6641 28.5547C35.8816 29.0022 35.9125 29.5179 35.7499 29.9882C35.5872 30.4585 35.2444 30.8449 34.7969 31.0625C33.2103 31.8323 31.4163 32.0651 29.6858 31.7256C27.9553 31.386 26.3822 30.4927 25.2041 29.1805C24.026 27.8682 23.3068 26.2083 23.1551 24.4513C23.0034 22.6944 23.4275 20.9358 24.3633 19.441C25.2991 17.9463 26.6958 16.7966 28.3426 16.1656C29.9893 15.5345 31.7966 15.4564 33.4917 15.9429C35.1867 16.4295 36.6775 17.4543 37.7388 18.8627C38.8001 20.271 39.3744 21.9865 39.375 23.75ZM35.2031 21.875C34.8484 21.1268 34.2886 20.4947 33.5888 20.052C32.889 19.6094 32.078 19.3744 31.25 19.3744C30.422 19.3744 29.611 19.6094 28.9112 20.052C28.2114 20.4947 27.6516 21.1268 27.2969 21.875H35.2031Z" fill="white"/>
</svg>
