<svg width="40" height="40" viewBox="0 0 40 40" fill="none" xmlns="http://www.w3.org/2000/svg">
<path d="M36.8749 20.0937V20C36.8736 17.4968 36.3165 15.0251 35.2437 12.7635C34.171 10.5018 32.6094 8.50658 30.6718 6.92185L30.578 6.84373L30.4374 6.74998C27.9615 4.79569 24.987 3.57518 21.852 3.22715C18.717 2.87913 15.5472 3.41755 12.703 4.78123L12.4686 4.90623C10.1698 6.05625 8.16311 7.71488 6.60097 9.75622C5.03883 11.7976 3.96227 14.168 3.45301 16.6875C3.23042 17.7775 3.12047 18.8875 3.12488 20C3.1279 22.6154 3.73766 25.1944 4.90621 27.5342C6.07476 29.874 7.77022 31.9108 9.85926 33.4844C9.94131 33.5556 10.0303 33.6184 10.1249 33.6719H10.1405C12.3401 35.2604 14.89 36.2956 17.5745 36.69C20.2589 37.0844 22.9988 36.8263 25.5624 35.9375L25.7655 35.8594C28.9963 34.6803 31.7906 32.5439 33.7756 29.7353C35.7605 26.9268 36.8417 23.5796 36.8749 20.1406V20.0937ZM32.9999 18.125H32.4999C30.3241 18.1223 28.1565 18.39 26.0468 18.9219C25.5857 17.6462 25.0268 16.4082 24.3749 15.2187C26.2595 14.0227 27.9866 12.5949 29.5155 10.9687C31.3838 12.9401 32.6003 15.4385 32.9999 18.125ZM26.5624 8.6406C25.2968 9.93818 23.8865 11.0863 22.3593 12.0625C20.9827 10.2147 19.376 8.55025 17.578 7.10935C18.3756 6.95176 19.1868 6.87325 19.9999 6.87498C22.3054 6.86972 24.5707 7.47919 26.5624 8.6406ZM13.3749 8.68748C15.5118 10.0782 17.4067 11.8095 18.9843 13.8125C16.1413 15.0129 13.0859 15.6292 9.99988 15.625C9.23426 15.625 8.45301 15.5781 7.67176 15.5C8.72533 12.6365 10.7414 10.2283 13.3749 8.68748ZM6.87488 20C6.87488 19.7344 6.89051 19.4687 6.90613 19.2031C7.93363 19.3149 8.96633 19.3722 9.99988 19.375C13.8193 19.3781 17.5956 18.5685 21.078 17C21.6111 17.9878 22.0757 19.011 22.4686 20.0625C21.3119 20.5302 20.1893 21.0784 19.1093 21.7031C15.8102 23.6038 12.9507 26.1811 10.7186 29.2656C9.49968 28.0501 8.53267 26.606 7.87307 25.016C7.21347 23.426 6.87426 21.7214 6.87488 20ZM13.7186 31.5156C15.6458 28.8359 18.1229 26.5985 20.9843 24.9531C21.7885 24.4807 22.6238 24.0631 23.4843 23.7031C23.7577 25.1456 23.8989 26.61 23.9061 28.0781C23.9065 29.6213 23.7495 31.1605 23.4374 32.6719C22.3166 32.9742 21.1607 33.1266 19.9999 33.125C17.8037 33.1284 15.6426 32.5746 13.7186 31.5156ZM27.5155 30.75C27.6091 29.8624 27.656 28.9706 27.6561 28.0781C27.6543 26.2082 27.4553 24.3437 27.0624 22.5156C28.8439 22.092 30.6687 21.8771 32.4999 21.875H32.9999C32.741 23.6506 32.1207 25.3543 31.1774 26.8808C30.2341 28.4073 28.9878 29.7241 27.5155 30.75Z" fill="white"/>
</svg>
