<svg width="130" height="42" viewBox="0 0 130 42" fill="none" xmlns="http://www.w3.org/2000/svg">
<path d="M0 3.83691V41.29H40.7363L0 3.83691Z" fill="white"/>
<path d="M29.8702 22.6218C35.9224 22.6218 40.8287 17.6697 40.8287 11.5609C40.8287 5.45213 35.9224 0.5 29.8702 0.5C23.8179 0.5 18.9116 5.45213 18.9116 11.5609C18.9116 17.6697 23.8179 22.6218 29.8702 22.6218Z" fill="white"/>
<path d="M65.0577 41.29H46.4929V3.79028H65.0577C75.3227 3.79028 83.6226 12.191 83.6226 22.5285C83.6226 32.8893 75.3227 41.29 65.0577 41.29Z" fill="white"/>
<path d="M89.2869 4.07031V41.5H130L89.2869 4.07031Z" fill="white"/>
<path d="M89.2869 41.22V3.79028H130L89.2869 41.22Z" fill="white"/>
</svg>
